<?xml version="1.0" encoding="utf-8"?>
<!-- Generator: Adobe Illustrator 26.0.1, SVG Export Plug-In . SVG Version: 6.00 Build 0)  -->
<svg version="1.1" id="Layer_1" xmlns="http://www.w3.org/2000/svg" xmlns:xlink="http://www.w3.org/1999/xlink" x="0px" y="0px"
	 viewBox="0 0 1309.9 323.4" style="enable-background:new 0 0 1309.9 323.4;" xml:space="preserve">
<style type="text/css">
	.st0{fill:#1E1E1E;}
	.st1{fill:#FFFFFF;}
</style>
<g>
	<path class="st0" d="M1189,0H15.8v0L0,15.8l15.8,15.8v0.8L0,48.2L15.8,64v0.8L0,80.6l15.8,15.8v0.8L0,113.1l15.8,15.8v0.8L0,145.5
		l15.8,15.8v0.8L0,177.9l15.8,15.8v0.8L0,210.4l15.8,15.8v0.8L0,242.8l15.8,15.8v0.8L0,275.2L15.8,291v0.8L0,307.6l15.8,15.8v0H1189
		l120.9-161.7L1189,0z M1228.1,177.9c-9,0-16.2-7.3-16.2-16.2c0-9,7.3-16.2,16.2-16.2c9,0,16.2,7.3,16.2,16.2
		C1244.3,170.7,1237,177.9,1228.1,177.9z"/>
	<g>
		<path class="st1" d="M190.9,75.6c-2.2,3.1-2.9,6.7-2.9,13.5v34.9c0,6.7,0.6,10.4,2.9,13.6v0.3h-12.2v-0.3
			c2.2-3.1,2.9-6.9,2.9-13.6v-15.6h-37.2v15.6c0,6.7,0.6,10.4,2.9,13.6v0.3h-12.1v-0.3c2.2-3.1,2.9-6.9,2.9-13.6V89.1
			c0-6.6-0.6-10.4-2.9-13.5v-0.3h12.1v0.3c-2.2,3.1-2.9,6.7-2.9,13.5v14.5h37.2V89.1c0-6.6-0.6-10.4-2.9-13.5v-0.3h12.2V75.6z"/>
		<path class="st1" d="M202.1,106.6c0-18.5,12.8-32.2,30.6-32.2c17.9,0,30.6,13.7,30.6,32.2c0,18.5-12.8,32.1-30.6,32.1
			C214.9,138.7,202.1,125.1,202.1,106.6z M256.3,106.6c0-16.1-9.8-27.3-23.5-27.3c-13.7,0-23.5,11.2-23.5,27.3
			c0,16.1,9.8,27.1,23.5,27.1C246.5,133.7,256.3,122.7,256.3,106.6z"/>
		<path class="st1" d="M274.2,88.7c-1.5-5.7-3-9.5-5.7-13.1v-0.3h12.2v0.3c-2,3.6-1.3,7.4,0.2,12.8l11.1,39.9h0.4l14.9-48.4
			l-1.5-4.6h7.5l15.2,52.6h0.4l11.3-39.4c1.6-5.7,2.2-9.5,0.5-12.9v-0.3h10.5v0.3c-3,3.6-4.3,7.3-5.9,13l-14.4,49.1H325l-14.7-51.1
			H310l-15.9,51.1h-6L274.2,88.7z"/>
		<path class="st1" d="M377.7,106.6c0-19.8,15-32.2,32.1-32.2c7.4,0,13,1.7,18.1,4.6v9h-0.4c-4-5.7-10.5-8.7-17.5-8.7
			c-13.9,0-25.2,10.6-25.2,26.8c0,17,11.3,26.9,26.1,26.9c7.1,0,13.1-2.3,19.1-7l0.9,3.8c-5.7,5.8-12.8,9-21.4,9
			C392.2,138.7,377.7,126.5,377.7,106.6z"/>
		<path class="st1" d="M485.1,123.7c2.6,6.4,4.2,10.6,7.1,13.8v0.3H480v-0.3c1.5-3.1,0.6-7.6-1.7-13.6l-2.3-5.7h-27.4l-2.3,5.9
			c-2.2,5.8-3.1,10.2-1.4,13.4v0.3h-10.9v-0.3c3.1-3.2,4.8-7.6,7.1-13.5l19.1-48.7h5.4L485.1,123.7z M450.3,113.4H474l-11.8-29.6
			h-0.4L450.3,113.4z"/>
		<path class="st1" d="M500.2,137.5c2.3-3.1,2.9-6.9,2.9-13.6V78.6l-2.1-3.1v-0.2h9.3l35.8,52.8h0.4V89.1c0-6.6-0.5-10.4-2.9-13.5
			v-0.3h11v0.3c-2.2,3.1-2.9,6.9-2.9,13.5v48.7H545L508.6,84h-0.4v39.9c0,6.6,0.6,10.4,2.9,13.6v0.3h-10.9V137.5z"/>
		<path class="st1" d="M589.4,88.7c-1.5-5.7-3-9.5-5.7-13.1v-0.3h12.2v0.3c-2,3.6-1.3,7.4,0.2,12.8l11.1,39.9h0.4l14.9-48.4
			l-1.5-4.6h7.5l15.2,52.6h0.4l11.3-39.4c1.6-5.7,2.2-9.5,0.5-12.9v-0.3h10.5v0.3c-3,3.6-4.3,7.3-5.9,13l-14.4,49.1h-5.8l-14.7-51.1
			h-0.3l-15.9,51.1h-6L589.4,88.7z"/>
		<path class="st1" d="M718.6,127.7v10.1h-43.7v-0.3c2.3-3.1,2.8-6.8,2.8-13.6V89.2c0-6.6-0.5-10.5-2.8-13.6v-0.3h42.5v8.8H717
			c-2.3-3-5.7-4.1-13.5-4.1h-19.4v23.8h15.4c7,0,10-1,12.2-3.2h0.4v11h-0.4c-2.2-2.2-5.2-3.1-12.2-3.1h-15.4V133H705
			c7.1,0,10.8-1.3,13.2-5.3H718.6z"/>
		<path class="st1" d="M753,137.5c2.3-3.1,2.9-6.9,2.9-13.6V89.2c0-6.6-0.6-10.4-2.9-13.6v-0.3h21.6c13.9,0,21.4,6,21.4,15
			c0,7.6-5.9,13-14.6,14.6v0.4c11.1,1.2,17.8,7.2,17.8,15.4c0,9.8-8.1,17.2-22.8,17.2H753V137.5z M773.6,102.9c9.3,0,15.5-4,15.5-12
			c0-6.8-5.4-11-15.3-11h-11.6v23H773.6z M762.2,107.6v25.5h12.4c11,0,17.6-4.5,17.6-12.8c0-8.6-7.3-12.7-18.4-12.7H762.2z"/>
		<path class="st1" d="M853.9,127.7v10.1h-43.7v-0.3c2.3-3.1,2.8-6.8,2.8-13.6V89.2c0-6.6-0.5-10.5-2.8-13.6v-0.3h42.5v8.8h-0.4
			c-2.3-3-5.7-4.1-13.5-4.1h-19.4v23.8h15.4c7,0,10-1,12.2-3.2h0.4v11h-0.4c-2.2-2.2-5.2-3.1-12.2-3.1h-15.4V133h20.8
			c7.1,0,10.8-1.3,13.2-5.3H853.9z"/>
		<path class="st1" d="M861.6,106.6c0-19.8,15-32.2,32.1-32.2c7.4,0,13,1.7,18.1,4.6v9h-0.4c-4-5.7-10.5-8.7-17.5-8.7
			c-13.9,0-25.2,10.6-25.2,26.8c0,17,11.3,26.9,26.1,26.9c7.1,0,13.1-2.3,19.1-7l0.9,3.8c-5.7,5.8-12.8,9-21.4,9
			C876,138.7,861.6,126.5,861.6,106.6z"/>
		<path class="st1" d="M921,106.6c0-18.5,12.8-32.2,30.6-32.2c17.9,0,30.6,13.7,30.6,32.2c0,18.5-12.8,32.1-30.6,32.1
			C933.8,138.7,921,125.1,921,106.6z M975.2,106.6c0-16.1-9.8-27.3-23.5-27.3c-13.7,0-23.5,11.2-23.5,27.3
			c0,16.1,9.8,27.1,23.5,27.1C965.4,133.7,975.2,122.7,975.2,106.6z"/>
		<path class="st1" d="M1025.4,137.8l-23.5-54.9h-0.4v41.1c0,6.6,0.6,10.4,2.9,13.6v0.3h-10.9v-0.3c2.2-3.1,2.8-7,2.8-13.6V89.2
			c0-6.6-0.4-10.5-2.8-13.6v-0.3h11.9l23.2,54.2h0.4l23-54.2h11.6v0.3c-2.3,3.1-2.9,7-2.9,13.6v34.8c0,6.6,0.5,10.4,2.9,13.6v0.3
			h-12.2v-0.3c2.3-3.1,2.9-6.9,2.9-13.6V82.8h-0.4l-23.3,55H1025.4z"/>
		<path class="st1" d="M1121.3,127.7v10.1h-43.7v-0.3c2.3-3.1,2.8-6.8,2.8-13.6V89.2c0-6.6-0.5-10.5-2.8-13.6v-0.3h42.5v8.8h-0.4
			c-2.3-3-5.7-4.1-13.5-4.1h-19.4v23.8h15.4c7,0,10-1,12.2-3.2h0.4v11h-0.4c-2.2-2.2-5.2-3.1-12.2-3.1h-15.4V133h20.8
			c7.1,0,10.8-1.3,13.2-5.3H1121.3z"/>
		<path class="st1" d="M250.1,245.3c2.6-3.1,3.2-6.9,3.2-13.6v-43.9h-7.5c-8,0-11.7,1.4-14,4.6h-0.4v-9.3h50.3v9.3h-0.4
			c-2.2-3.1-5.9-4.6-13.9-4.6h-7.6v43.9c0,6.6,0.7,10.4,3.2,13.6v0.3h-12.9V245.3z"/>
		<path class="st1" d="M346.4,183.4c-2.2,3.1-2.9,6.7-2.9,13.5v34.9c0,6.7,0.6,10.4,2.9,13.6v0.3h-12.2v-0.3
			c2.2-3.1,2.9-6.9,2.9-13.6v-15.6h-37.2v15.6c0,6.7,0.6,10.4,2.9,13.6v0.3h-12.1v-0.3c2.2-3.1,2.9-6.9,2.9-13.6v-34.9
			c0-6.6-0.6-10.4-2.9-13.5v-0.3h12.1v0.3c-2.2,3.1-2.9,6.7-2.9,13.5v14.5h37.2v-14.5c0-6.6-0.6-10.4-2.9-13.5v-0.3h12.2V183.4z"/>
		<path class="st1" d="M404.2,235.5v10.1h-43.7v-0.3c2.3-3.1,2.8-6.8,2.8-13.6V197c0-6.6-0.5-10.5-2.8-13.6v-0.3H403v8.8h-0.4
			c-2.3-3-5.7-4.1-13.5-4.1h-19.4v23.8h15.4c7,0,10-1,12.2-3.2h0.4v11h-0.4c-2.2-2.2-5.2-3.1-12.2-3.1h-15.4v24.5h20.8
			c7.1,0,10.8-1.3,13.2-5.3H404.2z"/>
		<path class="st1" d="M470.5,245.6L447,190.7h-0.4v41.1c0,6.6,0.6,10.4,2.9,13.6v0.3h-10.9v-0.3c2.2-3.1,2.8-7,2.8-13.6V197
			c0-6.6-0.4-10.5-2.8-13.6v-0.3h11.9l23.2,54.2h0.4l23-54.2h11.6v0.3c-2.3,3.1-2.9,7-2.9,13.6v34.8c0,6.6,0.5,10.4,2.9,13.6v0.3
			h-12.2v-0.3c2.3-3.1,2.9-6.9,2.9-13.6v-41.1h-0.4l-23.3,55H470.5z"/>
		<path class="st1" d="M519.8,214.4c0-18.5,12.8-32.2,30.6-32.2c17.9,0,30.6,13.7,30.6,32.2c0,18.5-12.8,32.1-30.6,32.1
			C532.6,246.4,519.8,232.9,519.8,214.4z M574,214.4c0-16.1-9.8-27.3-23.5-27.3c-13.7,0-23.5,11.2-23.5,27.3
			c0,16.1,9.8,27.1,23.5,27.1C564.2,241.5,574,230.5,574,214.4z"/>
		<path class="st1" d="M592.2,245.3c2.3-3.1,2.9-6.9,2.9-13.6v-45.4l-2.1-3.1v-0.2h9.3l35.8,52.8h0.4v-39.1c0-6.6-0.5-10.4-2.9-13.5
			v-0.3h11v0.3c-2.2,3.1-2.9,6.9-2.9,13.5v48.7H637l-36.4-53.7h-0.4v39.9c0,6.6,0.6,10.4,2.9,13.6v0.3h-10.9V245.3z"/>
		<path class="st1" d="M662.5,220.4v-23.5c0-6.6-0.6-10.4-2.9-13.5v-0.3h12.1v0.3c-2.2,3.1-2.9,6.8-2.9,13.5v23.6
			c0,12.8,6.9,20.3,18.5,20.3c11.6,0,18.6-7.5,18.6-20.2v-23.7c0-6.6-0.6-10.3-2.9-13.5v-0.3h10.9v0.3c-2.2,3.1-2.9,6.8-2.9,13.6
			v23.4c0,15.8-8.7,26.1-24.3,26.1C671.4,246.4,662.5,236.3,662.5,220.4z"/>
		<path class="st1" d="M759.1,245.6l-23.5-54.9h-0.4v41.1c0,6.6,0.6,10.4,2.9,13.6v0.3h-10.9v-0.3c2.2-3.1,2.8-7,2.8-13.6V197
			c0-6.6-0.4-10.5-2.8-13.6v-0.3h11.9l23.2,54.2h0.4l23-54.2h11.6v0.3c-2.3,3.1-2.9,7-2.9,13.6v34.8c0,6.6,0.5,10.4,2.9,13.6v0.3
			H785v-0.3c2.3-3.1,2.9-6.9,2.9-13.6v-41.1h-0.4l-23.3,55H759.1z"/>
		<path class="st1" d="M855,235.5v10.1h-43.7v-0.3c2.3-3.1,2.8-6.8,2.8-13.6V197c0-6.6-0.5-10.5-2.8-13.6v-0.3h42.5v8.8h-0.4
			c-2.3-3-5.7-4.1-13.5-4.1h-19.4v23.8h15.4c7,0,10-1,12.2-3.2h0.4v11h-0.4c-2.2-2.2-5.2-3.1-12.2-3.1h-15.4v24.5h20.8
			c7.1,0,10.8-1.3,13.2-5.3H855z"/>
		<path class="st1" d="M866.2,245.3c2.3-3.1,2.9-6.9,2.9-13.6v-45.4l-2.1-3.1v-0.2h9.3l35.8,52.8h0.4v-39.1c0-6.6-0.5-10.4-2.9-13.5
			v-0.3h11v0.3c-2.2,3.1-2.9,6.9-2.9,13.5v48.7H911l-36.4-53.7h-0.4v39.9c0,6.6,0.6,10.4,2.9,13.6v0.3h-10.9V245.3z"/>
		<path class="st1" d="M947.8,245.3c2.6-3.1,3.2-6.9,3.2-13.6v-43.9h-7.5c-8,0-11.7,1.4-14,4.6h-0.4v-9.3h50.3v9.3H979
			c-2.2-3.1-5.9-4.6-13.9-4.6h-7.6v43.9c0,6.6,0.7,10.4,3.2,13.6v0.3h-12.9V245.3z"/>
		<path class="st1" d="M998,215.5c9.6-2.2,15.6-7.4,15.6-15.5c0-7.5-6.1-12.4-14.3-12.4c-6.4,0-10.5,2.2-13.8,4.9l-0.9-3.7
			c3.7-3.8,9.2-6.6,16.3-6.6c10.5,0,19.4,6.7,19.4,17.2c0,9.5-7.7,16-17.4,19v10.2H998V215.5z M995.3,241.3c0-2.8,2.3-5.1,5.1-5.1
			c2.9,0,5.2,2.3,5.2,5.1c0,2.8-2.3,5.1-5.2,5.1C997.6,246.4,995.3,244.1,995.3,241.3z"/>
	</g>
</g>
</svg>
