<?xml version="1.0" encoding="utf-8"?>
<!-- Generator: Adobe Illustrator 26.0.1, SVG Export Plug-In . SVG Version: 6.00 Build 0)  -->
<svg version="1.1" id="Layer_1" xmlns="http://www.w3.org/2000/svg" xmlns:xlink="http://www.w3.org/1999/xlink" x="0px" y="0px"
	 viewBox="0 0 2000 500" style="enable-background:new 0 0 2000 500;" xml:space="preserve">
<style type="text/css">
	.st0{fill:#FFFFFF;}
</style>
<path class="st0" d="M1803.6,3.3L36.2,3L12.1,27.1l24.1,24.1v1.3L12.1,76.6l24.1,24.1v1.3l-24.1,24.1l24,24.1v1.3l0,0l-24,24.1
	l24.1,24.1v1.3L12,225.1l24.1,24.1v1.3L12,274.6l24.1,24.1v1.3l0,0L12,324.1l24.1,24.1v1.3L12,373.6l24.1,24.1v1.3L12,423.1
	l24.1,24.1v1.3l0,0L12,472.6l24.1,24.1l1767.4,0.3L1988,250.2L1803.6,3.3z M1863.2,274.9c-13.6,0-24.7-11.1-24.7-24.8
	c0-13.6,11.1-24.7,24.7-24.7c13.6,0,24.7,11.1,24.7,24.8C1887.9,263.8,1876.8,274.9,1863.2,274.9z"/>
</svg>
