<?xml version="1.0" encoding="utf-8"?>
<!-- Generator: Adobe Illustrator 26.0.1, SVG Export Plug-In . SVG Version: 6.00 Build 0)  -->
<svg version="1.1" id="Layer_1" xmlns="http://www.w3.org/2000/svg" xmlns:xlink="http://www.w3.org/1999/xlink" x="0px" y="0px"
	 viewBox="0 0 2000 500" style="enable-background:new 0 0 2000 500;" xml:space="preserve">
<style type="text/css">
	.st0{fill:#1E1E1E;}
</style>
<path class="st0" d="M1813.4,0.3L24.5,0L0.1,24.4l24.4,24.4v1.3L0.1,74.5l24.4,24.4v1.3L0.1,124.6L24.4,149v1.3l0,0L0.1,174.7
	l24.4,24.4v1.3L0,224.8l24.4,24.4v1.3L0,274.9l24.4,24.4v1.3l0,0L0,325l24.4,24.4v1.3L0,375.1l24.4,24.4v1.3L0,425.2l24.4,24.4v1.3
	l0,0L0,475.3l24.4,24.4l1788.9,0.3L2000,250.2L1813.4,0.3z M1873.7,275.2c-13.8,0-25-11.2-25-25.1c0-13.8,11.2-25,25-25
	s25,11.2,25,25.1C1898.7,264,1887.5,275.2,1873.7,275.2z"/>
</svg>
