<?xml version="1.0" encoding="utf-8"?>
<!-- Generator: Adobe Illustrator 26.0.1, SVG Export Plug-In . SVG Version: 6.00 Build 0)  -->
<svg version="1.1" id="Layer_1" xmlns="http://www.w3.org/2000/svg" xmlns:xlink="http://www.w3.org/1999/xlink" x="0px" y="0px"
	 viewBox="0 0 877.7 46.3" style="enable-background:new 0 0 877.7 46.3;" xml:space="preserve">
<style type="text/css">
	.st0{fill:#FFFFFF;}
</style>
<g>
	<g>
		<g>
			<g>
				<path class="st0" d="M24.4,22.2c2.1-0.8,3.7-2.1,4.9-3.9c1.2-1.8,1.8-4.1,1.8-6.6c0-3.8-1.3-6.6-3.8-8.4
					c-1.3-0.9-2.7-1.5-4.3-1.8C21.4,1.1,19.5,1,17.3,1H0v44.3h17.6c2.5,0,4.7-0.3,6.5-0.8c1.9-0.5,3.4-1.4,4.7-2.5
					c2.2-2.1,3.4-5.3,3.4-9.6c0-2.7-0.7-4.9-2.1-6.6C28.7,24.1,26.8,22.9,24.4,22.2z M6.2,6.5h13.6c3.2,0,4.8,1.5,4.8,4.5v4
					c0,1.4-0.4,2.5-1.2,3.4c-0.8,0.9-2,1.3-3.7,1.3H6.2V6.5z M25.6,34.9c0,1.7-0.5,2.9-1.5,3.7c-1,0.8-2.3,1.2-4,1.2H6.2V25.1h14.3
					c1.5,0,2.8,0.4,3.7,1.1c0.9,0.7,1.4,1.8,1.4,3.3V34.9z"/>
				<rect x="35.1" y="1" class="st0" width="5.9" height="44.3"/>
				<path class="st0" d="M70.4,22.6c0-2-0.3-3.6-0.9-5.1c-0.6-1.4-1.5-2.6-2.6-3.5c-1.1-0.9-2.5-1.6-4-2.1c-1.5-0.5-3.2-0.7-5-0.7
					c-1.8,0-3.4,0.3-5,0.8c-1.5,0.5-2.9,1.3-4,2.2c-1.1,1-2.1,2.1-2.7,3.4c-0.7,1.3-1,2.7-1,4.3h5.9c0-2.1,0.6-3.7,1.9-4.6
					c1.2-0.9,2.9-1.4,5-1.4c1,0,2,0.1,2.8,0.3c0.8,0.2,1.6,0.6,2.2,1c0.6,0.5,1.1,1.2,1.4,2c0.3,0.8,0.5,1.9,0.5,3.2v2.7l-10.8,1
					c-3.3,0.3-5.8,1.4-7.4,3.2c-1.7,1.9-2.5,4.1-2.5,6.7c0,1.3,0.2,2.6,0.7,3.8c0.5,1.2,1.2,2.2,2,3.1c1,1,2.1,1.7,3.5,2.3
					s2.8,0.8,4.5,0.8c2.5,0,4.6-0.6,6.4-1.7c1.8-1.1,3.1-2.9,4-5.2h0.3l0.1,6.1h9.9v-5h-5V22.6z M64.7,31.2c0,3-0.8,5.4-2.3,7.3
					c-1.5,1.9-3.6,2.8-6.3,2.8c-1.9,0-3.3-0.4-4.4-1.1c-1.1-0.7-1.6-1.8-1.6-3.4V34c0-1,0.2-1.7,0.5-2.3c0.3-0.6,1.1-0.9,2.3-1
					l11.8-1.1V31.2z"/>
				<path class="st0" d="M94.8,39.6c-1.4,1.2-3.2,1.7-5.4,1.7c-1.1,0-2.1-0.2-3-0.6c-0.9-0.4-1.8-0.9-2.5-1.6
					c-0.7-0.7-1.3-1.5-1.7-2.5c-0.4-1-0.6-2.1-0.6-3.2v-9.8c0-1.3,0.2-2.4,0.7-3.4c0.4-1,1-1.8,1.8-2.4c0.7-0.7,1.6-1.2,2.5-1.5
					c0.9-0.3,1.9-0.5,2.9-0.5c1,0,1.9,0.1,2.8,0.3c0.9,0.2,1.7,0.6,2.4,1.1c0.7,0.5,1.3,1.3,1.7,2.2c0.4,0.9,0.7,2,0.8,3.4h5.9
					c-0.2-2-0.6-3.8-1.4-5.2c-0.7-1.5-1.7-2.7-2.9-3.6c-1.2-1-2.5-1.7-4.1-2.1c-1.5-0.5-3.2-0.7-4.9-0.7c-2.3,0-4.3,0.4-6.1,1.3
					c-1.8,0.8-3.3,2-4.5,3.5c-1.2,1.5-2.1,3.4-2.8,5.6c-0.6,2.2-0.9,4.6-0.9,7.3c0,2.5,0.3,4.8,0.8,6.8c0.6,2.1,1.4,3.9,2.6,5.4
					c1.2,1.5,2.6,2.7,4.4,3.6c1.8,0.8,3.8,1.3,6.3,1.3c1.7,0,3.3-0.2,4.8-0.7c1.5-0.5,2.9-1.2,4.1-2.2c1.2-1,2.2-2.2,3.1-3.7
					c0.8-1.5,1.3-3.3,1.6-5.3h-5.9C97.1,36.6,96.3,38.4,94.8,39.6z"/>
				<path class="st0" d="M168.9,38.9c-1.8,1.3-4.2,2-7.2,2c-1.6,0-3-0.3-4.4-0.8c-1.4-0.5-2.6-1.3-3.6-2.3c-1-1-1.8-2.1-2.4-3.5
					c-0.6-1.3-0.9-2.8-0.9-4.3V16.3c0-1.6,0.3-3.1,0.8-4.4c0.5-1.3,1.3-2.5,2.3-3.4c1-1,2.1-1.7,3.5-2.2c1.3-0.5,2.8-0.8,4.3-0.8
					c2.9,0,5.2,0.7,7,2.1c1.7,1.4,2.8,3.4,3.1,6h6.2c-0.1-2.1-0.6-4-1.5-5.6c-0.8-1.7-2-3.1-3.4-4.3c-1.4-1.2-3-2.1-4.9-2.7
					c-1.9-0.6-3.8-0.9-6-0.9c-3.1,0-5.8,0.5-8.1,1.6c-2.3,1.1-4.2,2.6-5.7,4.7c-1.5,2-2.6,4.5-3.4,7.4c-0.7,2.9-1.1,6.2-1.1,9.8
					c0,3.5,0.4,6.6,1.2,9.4c0.8,2.8,2,5.2,3.5,7.2c1.5,2,3.4,3.5,5.7,4.6c2.3,1.1,4.9,1.6,7.8,1.6c2.2,0,4.4-0.3,6.3-1
					c2-0.7,3.7-1.6,5.1-2.8c1.5-1.2,2.6-2.6,3.5-4.4c0.9-1.7,1.4-3.6,1.5-5.7h-6.2C171.8,35.4,170.8,37.5,168.9,38.9z"/>
				<path class="st0" d="M201.7,31.5c0,2.9-0.7,5.3-2.2,7.1c-1.5,1.8-3.4,2.8-5.9,2.8c-2.5,0-4.2-0.7-5.1-2.1
					c-0.9-1.4-1.4-3.3-1.4-5.7V12.1h-5.9v22.1c0,2.1,0.3,3.9,0.8,5.4c0.5,1.5,1.3,2.7,2.2,3.7c1,1,2.1,1.6,3.4,2.1
					c1.3,0.4,2.8,0.7,4.3,0.7c2.5,0,4.5-0.6,6-1.7c1.5-1.1,2.7-2.6,3.7-4.6v5.5h5.9V12.1h-5.9V31.5z"/>
				<path class="st0" d="M238,16.3c-1.1-1.6-2.5-2.8-4.1-3.7c-1.7-0.9-3.6-1.4-5.8-1.4c-2.5,0-4.7,0.5-6.4,1.6
					c-1.8,1.1-3.2,2.6-4.2,4.6V1h-5.9v44.3h5.9v-5.4c1,2,2.4,3.5,4.2,4.6c1.8,1.1,3.9,1.6,6.4,1.6c2.2,0,4.2-0.5,5.8-1.4
					c1.6-0.9,3-2.2,4.1-3.7c1.1-1.6,1.9-3.4,2.4-5.5c0.5-2.1,0.8-4.4,0.8-6.8c0-2.4-0.3-4.7-0.8-6.8C239.9,19.7,239.1,17.9,238,16.3
					z M235.1,33.8c0,2.2-0.8,4.1-2.4,5.5c-1.6,1.4-3.6,2.1-6.1,2.1c-2.9,0-5.2-0.9-6.8-2.8c-1.6-1.9-2.4-4.2-2.4-7.1v-5.6
					c0-2.9,0.8-5.2,2.4-7.1c1.6-1.9,3.8-2.8,6.8-2.8c2.5,0,4.5,0.7,6.1,2.1c1.6,1.4,2.4,3.2,2.4,5.5V33.8z"/>
				<path class="st0" d="M271.7,30.3v-3.1c0-2.2-0.3-4.3-0.9-6.2c-0.6-1.9-1.5-3.6-2.6-5c-1.2-1.4-2.6-2.6-4.4-3.4
					c-1.8-0.8-3.8-1.2-6.2-1.2c-2.3,0-4.3,0.4-6.1,1.3c-1.8,0.9-3.3,2.1-4.5,3.6c-1.2,1.5-2.2,3.4-2.8,5.5c-0.6,2.2-0.9,4.5-0.9,7
					c0,2.6,0.3,4.9,0.9,7c0.6,2.1,1.5,3.9,2.7,5.5c1.2,1.5,2.7,2.7,4.5,3.6c1.8,0.9,3.9,1.3,6.3,1.3c1.8,0,3.5-0.3,5.1-0.8
					s3-1.3,4.3-2.3c1.3-1,2.3-2.2,3.1-3.5c0.8-1.4,1.3-3,1.4-4.8h-5.8c-0.2,2.3-1.1,4-2.6,5.1c-1.5,1.1-3.3,1.6-5.4,1.6
					c-1,0-2-0.2-3-0.5c-1-0.3-1.9-0.8-2.6-1.5c-0.8-0.6-1.4-1.4-1.9-2.4c-0.5-0.9-0.7-2-0.7-3.2v-3.5H271.7z M249.4,23.8
					c0-1.2,0.2-2.3,0.7-3.3c0.4-1,1-1.8,1.8-2.5c0.8-0.7,1.6-1.2,2.6-1.5c1-0.3,2-0.5,3.1-0.5c1.1,0,2.1,0.2,3.1,0.5
					c1,0.3,1.9,0.9,2.6,1.5c0.8,0.7,1.3,1.5,1.8,2.5c0.4,1,0.7,2.1,0.7,3.3v1.8h-16.3V23.8z"/>
				<path class="st0" d="M129.5,28.8c-1.7-1.9-4.1-2.9-7.4-3.2l-2.5-0.2l12.1-13.3h-7.1l-11.2,12.5h-1.4l-0.5,0V1h-5.9v44.3h5.9
					V29.1l12,1.1c1.2,0.1,2,0.4,2.3,1c0.3,0.5,0.4,1.3,0.5,2.2v12h5.9v-9.8l0,0C132,32.9,131.2,30.7,129.5,28.8z"/>
			</g>
		</g>
		<g>
			<path class="st0" d="M342.5,1h8.7l18.3,36.7h0.3V1h6v44.2H367L348.7,8.3h-0.3v36.9h-6V1z"/>
			<path class="st0" d="M378.9,28.6c0-10.1,4.8-17.4,14.9-17.4c10.1,0,14.9,7.2,14.9,17.4c0,10.1-4.8,17.4-14.9,17.4
				C383.7,46,378.9,38.8,378.9,28.6z M402.5,33.8V23.5c0-4.5-4-7.5-8.7-7.5s-8.7,3-8.7,7.5v10.3c0,4.5,4,7.5,8.7,7.5
				S402.5,38.3,402.5,33.8z"/>
			<path class="st0" d="M411.6,12h5.9v5.5c1.5-3.6,4.5-6.2,9.2-6.2c4.4,0,8.1,2.1,9.5,6.8c1.4-3.9,4.8-6.8,9.8-6.8
				c5.8,0,10.3,3.3,10.3,11.8v22.1h-5.9V23.7c0-4.8-1.8-7.8-6-7.8c-4.1,0-7.5,4.1-7.5,9.9v19.4H431V23.7c0-4.8-1.8-7.8-6-7.8
				c-4.1,0-7.5,4.1-7.5,9.9v19.4h-5.9V12z"/>
			<path class="st0" d="M462.7,43c-1.7-1.8-2.7-4.3-2.7-6.9c0-5.2,3.3-9.4,9.9-9.9l10.8-1v-2.7c0-5.1-2.8-6.6-6.9-6.6
				c-4.1,0-6.8,1.8-6.8,6H461c0-6.2,5.7-10.7,12.7-10.7c7.2,0,12.5,3.5,12.5,11.3v17.6h4.9v5h-9.9l-0.1-6.1H481
				c-1.8,4.7-5.5,6.9-10.4,6.9C467.4,46,464.6,44.9,462.7,43z M480.6,31.2v-1.5l-11.8,1.1c-2.4,0.2-2.7,1.3-2.7,3.2v2.9
				c0,3.1,2.3,4.4,6,4.4C477.4,41.3,480.6,37.1,480.6,31.2z"/>
			<path class="st0" d="M491.4,28.6c0-9.6,4.2-17.4,13.1-17.4c4.9,0,8.5,2.2,10.6,6.2V1h5.9v44.2h-5.9v-5.4c-2.1,4-5.5,6.2-10.5,6.2
				C495.7,46,491.4,38.2,491.4,28.6z M515.1,31.4v-5.6c0-5.7-3.3-9.9-9.1-9.9c-4.8,0-8.5,3.1-8.5,7.5v10.3c0,4.5,3.6,7.5,8.5,7.5
				C511.9,41.3,515.1,37.1,515.1,31.4z"/>
			<path class="st0" d="M525.6,1h6.1v6.1h-6.1V1z M525.7,12h5.9v33.2h-5.9V12z"/>
			<path class="st0" d="M535.9,28.9c0-10.7,5.2-17.6,14.2-17.6c7,0,12.5,3.6,13.2,11.6h-5.9c-0.5-5.4-3.8-7-7.7-7
				c-3.9,0-7.7,2.7-7.7,7.8v9.8c0,4.7,3.5,7.8,7.8,7.8s7.5-2.3,7.9-7.2h5.9C562.7,42.3,556.8,46,550,46
				C540.4,46,535.9,38.8,535.9,28.9z"/>
			<path class="st0" d="M589.3,1h6.9l15.3,44.2H605l-3.6-10.9H584l-3.6,10.9H574L589.3,1z M599.8,29.2l-6.9-21.3h-0.3l-7,21.3H599.8
				z"/>
			<path class="st0" d="M613.9,12h15.9v5.1h-10.1v28.1h-5.9V12z"/>
			<path class="st0" d="M637.8,17h-5.6v-5h5.6V1h5.8V12h7.6v5h-7.6v23.1h7.6v5h-13.4V17z"/>
			<path class="st0" d="M664.9,1h9.8L686,35.1h0.3L697.5,1h9.6v44.2h-5.8V7.6h-0.3l-12.5,37.6h-4.9L671,7.6h-0.3v37.6h-5.8V1z"/>
			<path class="st0" d="M712.2,34.1V12h5.9v21.5c0,4.7,1.6,7.8,6.5,7.8c4.9,0,8.1-4.1,8.1-9.9V12h5.9v33.2h-5.9v-5.5
				c-1.8,3.9-4.7,6.2-9.7,6.2C716.8,46,712.2,42.7,712.2,34.1z"/>
			<path class="st0" d="M742.3,34.7h5.9c0.1,4.4,3.6,6.6,7.7,6.6c3.9,0,7.2-1.8,7.2-5.1c0-2.7-1.5-4.2-5.9-5.1l-5.5-1.1
				c-5.4-1.1-8.5-4.2-8.5-9.4c0-5.3,4.9-9.4,12.2-9.4c6.2,0,12.4,3.2,12.5,10.7H762c-0.1-4.4-3.1-6-6.6-6c-3.6,0-6.5,2-6.5,4.7
				c0,2.6,1.4,4,4.7,4.6l5.6,1.2c6.6,1.4,9.8,4.4,9.8,9.8c0,5.5-5.3,9.8-13.1,9.8C748.3,46,742.5,42.1,742.3,34.7z"/>
			<path class="st0" d="M771.1,28.6c0-10.1,5.2-17.4,14.3-17.4c9.5,0,14.2,7,14.2,15.9v3.1h-22.3v3.5c0,4.8,4,7.5,8.2,7.5
				s7.6-2.1,8-6.6h5.9c-0.6,7.1-6.8,11.3-13.9,11.3C775.8,46,771.1,38.8,771.1,28.6z M793.5,25.6v-1.8c0-4.9-3.8-7.8-8.1-7.8
				c-4.4,0-8.1,2.9-8.1,7.8v1.8H793.5z"/>
			<path class="st0" d="M803.4,34.1V12h5.9v21.5c0,4.7,1.6,7.8,6.5,7.8c4.9,0,8.1-4.1,8.1-9.9V12h5.9v33.2h-5.9v-5.5
				c-1.8,3.9-4.7,6.2-9.7,6.2C808,46,803.4,42.7,803.4,34.1z"/>
			<path class="st0" d="M833.1,12h5.8v5.5c1.5-3.6,4.6-6.2,9.2-6.2c4.4,0,8.1,2.1,9.5,6.8c1.4-3.9,4.8-6.8,9.8-6.8
				c5.8,0,10.3,3.3,10.3,11.8v22.1h-5.9V23.7c0-4.8-1.8-7.8-6-7.8c-4.1,0-7.5,4.1-7.5,9.9v19.4h-5.9V23.7c0-4.8-1.8-7.8-6-7.8
				c-4.1,0-7.5,4.1-7.5,9.9v19.4h-5.8V12z"/>
		</g>
	</g>
	<g>
		<polygon class="st0" points="316.2,1 283.7,1 283.7,33.5 295.5,45.3 328,45.3 328,12.8 		"/>
	</g>
</g>
</svg>
