<?xml version="1.0" encoding="utf-8"?>
<!-- Generator: Adobe Illustrator 26.0.1, SVG Export Plug-In . SVG Version: 6.00 Build 0)  -->
<svg version="1.1" id="Layer_1" xmlns="http://www.w3.org/2000/svg" xmlns:xlink="http://www.w3.org/1999/xlink" x="0px" y="0px"
	 viewBox="0 0 945.6 161" style="enable-background:new 0 0 945.6 161;" xml:space="preserve">
<style type="text/css">
	.st0{fill:#FFFFFF;}
</style>
<g>
	<path class="st0" d="M85,77.3c7.3-2.7,13-7.3,17.2-13.7c4.2-6.4,6.3-14.1,6.3-23.1c0-13.1-4.4-22.8-13.3-29.1
		C90.8,8.1,85.7,6,80.1,4.9c-5.6-1.1-12.3-1.6-20-1.6H0v154.2h61.2c8.6,0,16.2-0.9,22.6-2.8c6.5-1.9,11.9-4.8,16.2-8.7
		c7.8-7.3,11.7-18.5,11.7-33.4c0-9.3-2.4-16.9-7.3-22.9C99.7,83.7,93.2,79.6,85,77.3z M21.6,22.6H69c11.2,0.1,16.8,5.2,16.8,15.5
		v13.8c0,4.8-1.4,8.7-4.1,11.7c-2.7,3-7,4.5-12.7,4.5H21.6V22.6z M89.1,121.5c0,5.8-1.7,10-5.2,12.7c-3.5,2.7-8.1,4.1-13.8,4.1H21.6
		V87.5h49.9c5.4,0,9.7,1.3,12.8,3.8c3.2,2.5,4.8,6.4,4.8,11.6V121.5z"/>
	<rect x="122" y="3.3" class="st0" width="20.4" height="154.2"/>
	<path class="st0" d="M245,78.6c0-6.8-1.1-12.7-3.3-17.7c-2.2-5-5.2-9.1-9.2-12.2c-3.9-3.2-8.6-5.6-14-7.1
		c-5.4-1.6-11.1-2.4-17.3-2.4c-6.2,0-12,0.9-17.3,2.7c-5.4,1.8-10.1,4.4-14,7.7c-4,3.3-7.1,7.3-9.5,11.8c-2.4,4.5-3.5,9.5-3.5,15
		h20.4c0-7.5,2.2-12.8,6.5-16.1c4.3-3.2,10.1-4.9,17.3-4.9c3.6,0,6.9,0.4,9.9,1.1c3,0.7,5.5,1.9,7.6,3.7c2.1,1.7,3.7,4.1,4.9,7
		c1.1,3,1.7,6.7,1.7,11.2v9.3l-37.6,3.5c-11.5,1-20.2,4.8-25.9,11.3c-5.8,6.5-8.6,14.3-8.6,23.3c0,4.6,0.8,9,2.5,13.2
		c1.7,4.2,4,7.8,7,10.9c3.4,3.5,7.4,6.1,12.1,7.9s9.9,2.7,15.6,2.7c8.6,0,16.1-2,22.3-5.9c6.2-3.9,10.9-10,14.1-18.2h0.9l0.4,21.4
		h34.5v-17.5H245V78.6z M225.1,108.6c0,10.4-2.7,18.9-8,25.5c-5.3,6.6-12.6,9.9-21.8,9.9c-6.5,0-11.6-1.2-15.3-3.7
		c-3.7-2.5-5.5-6.4-5.5-11.7v-10.2c0-3.3,0.5-5.9,1.6-7.9c1.1-1.9,3.7-3,7.9-3.3l41.1-3.8V108.6z"/>
	<path class="st0" d="M330,137.8c-5,4.1-11.3,6.1-18.8,6.1c-3.8,0-7.3-0.6-10.5-1.9c-3.2-1.3-6.1-3.1-8.6-5.4
		c-2.5-2.3-4.5-5.2-5.9-8.6c-1.4-3.4-2.2-7.2-2.2-11.2v-34c0-4.5,0.8-8.5,2.3-11.8c1.5-3.4,3.6-6.2,6.1-8.5c2.6-2.3,5.5-4,8.6-5.1
		c3.2-1.1,6.5-1.7,9.9-1.7c3.3,0,6.5,0.4,9.6,1.2c3.1,0.8,5.9,2.1,8.3,4c2.4,1.9,4.4,4.4,5.9,7.5c1.5,3.1,2.5,7,2.9,11.7h20.4
		c-0.6-7-2.2-13.1-4.8-18.2c-2.6-5.1-5.9-9.4-10-12.7c-4.1-3.3-8.8-5.8-14.2-7.4c-5.4-1.6-11.1-2.4-17.1-2.4
		c-7.8,0-14.9,1.5-21.1,4.4c-6.2,3-11.4,7.1-15.7,12.3c-4.2,5.3-7.5,11.7-9.6,19.4c-2.2,7.6-3.3,16.1-3.3,25.3
		c0,8.6,1,16.6,2.9,23.8c2,7.2,5,13.5,9.1,18.9c4.1,5.4,9.2,9.6,15.3,12.5c6.1,3,13.4,4.4,21.9,4.4c5.9,0,11.5-0.8,16.9-2.5
		c5.3-1.7,10.1-4.2,14.4-7.6c4.2-3.4,7.8-7.8,10.7-13c2.9-5.2,4.7-11.3,5.4-18.4h-20.4C337.9,127.4,335,133.8,330,137.8z"/>
	<path class="st0" d="M587.8,135.2c-6.4,4.6-14.7,6.9-24.9,6.9c-5.4,0-10.5-0.9-15.2-2.8s-8.9-4.5-12.5-8c-3.6-3.4-6.4-7.4-8.4-12
		c-2-4.6-3-9.6-3-15.1V56.7c0-5.6,0.9-10.7,2.8-15.3c1.9-4.6,4.5-8.6,7.9-11.9c3.4-3.3,7.4-5.9,12-7.8c4.6-1.9,9.7-2.8,15.1-2.8
		c10.1,0,18.2,2.5,24.3,7.4c6.1,4.9,9.6,11.9,10.6,21h21.6c-0.4-7.3-2.1-13.9-5.1-19.7c-3-5.8-6.9-10.7-11.7-14.8
		c-4.8-4.1-10.5-7.2-17-9.4C577.9,1.1,571,0,563.6,0c-10.7,0-20.1,1.9-28.1,5.6c-8,3.8-14.7,9.2-19.9,16.3
		c-5.3,7.1-9.2,15.7-11.8,25.9c-2.6,10.1-3.9,21.4-3.9,34c0,12.1,1.4,23,4.2,32.7c2.8,9.7,6.9,18,12.1,24.9
		c5.3,6.9,11.9,12.3,19.7,16c7.9,3.7,16.9,5.6,27.2,5.6c7.8,0,15.2-1.2,22-3.5c6.8-2.4,12.8-5.6,17.8-9.7c5.1-4.1,9.1-9.2,12.2-15.2
		c3.1-6,4.9-12.6,5.3-19.9H599C597.9,123.1,594.2,130.6,587.8,135.2z"/>
	<path class="st0" d="M701.8,109.5c0,10.1-2.5,18.4-7.6,24.8c-5.1,6.4-11.9,9.6-20.5,9.6c-8.6,0-14.6-2.5-17.8-7.4
		c-3.2-4.9-4.9-11.5-4.9-19.9V42h-20.4V119c0,7.4,0.9,13.7,2.8,18.9c1.9,5.2,4.5,9.5,7.8,12.8c3.3,3.3,7.3,5.7,11.9,7.3
		c4.6,1.5,9.6,2.3,14.9,2.3c8.7,0,15.7-1.9,21-5.8c5.3-3.9,9.6-9.2,12.7-16v19h20.4V42h-20.4V109.5z"/>
	<path class="st0" d="M828.3,56.9c-3.8-5.4-8.6-9.7-14.3-12.9c-5.8-3.2-12.5-4.8-20.2-4.8c-8.8,0-16.2,1.9-22.4,5.6
		c-6.1,3.7-11,9.1-14.6,16V3.3h-20.4v154.2h20.4v-18.8c3.6,6.9,8.5,12.3,14.6,16c6.1,3.7,13.6,5.6,22.4,5.6c7.8,0,14.5-1.6,20.2-4.8
		c5.7-3.2,10.5-7.5,14.3-13c3.8-5.5,6.6-11.8,8.5-19.2c1.9-7.3,2.8-15.2,2.8-23.7c0-8.3-0.9-16.2-2.8-23.6
		C835,68.7,832.2,62.3,828.3,56.9z M818.1,117.7c0,7.8-2.8,14.2-8.2,19c-5.5,4.8-12.6,7.3-21.2,7.3c-10.3,0-18.1-3.2-23.6-9.7
		c-5.5-6.5-8.2-14.7-8.2-24.7V90c0-10,2.7-18.2,8.2-24.7c5.5-6.5,13.3-9.8,23.6-9.8c8.6,0,15.7,2.4,21.2,7.3
		c5.5,4.9,8.2,11.2,8.2,19V117.7z"/>
	<path class="st0" d="M945.6,105.4V94.6c0-7.7-1-15-3.1-21.7c-2.1-6.7-5.1-12.6-9.1-17.5c-4-5-9.1-8.9-15.3-11.8
		c-6.2-2.9-13.4-4.3-21.7-4.3c-8,0-15,1.5-21.2,4.5c-6.1,3-11.4,7.2-15.7,12.5c-4.3,5.3-7.6,11.7-9.8,19.2
		c-2.2,7.5-3.3,15.6-3.3,24.4c0,8.9,1,17.1,3,24.5c2,7.4,5.1,13.7,9.3,19c4.2,5.3,9.4,9.5,15.6,12.5c6.2,3,13.5,4.5,21.9,4.5
		c6.2,0,12-0.9,17.6-2.8c5.6-1.8,10.6-4.5,15-7.9c4.4-3.4,8.1-7.5,10.8-12.3c2.8-4.8,4.4-10.4,4.8-16.6h-20.3
		c-0.7,8-3.8,13.9-9.1,17.6c-5.3,3.7-11.6,5.5-18.8,5.5c-3.6,0-7.1-0.6-10.5-1.7c-3.4-1.1-6.4-2.8-9.2-5.1c-2.7-2.3-4.9-5-6.5-8.2
		c-1.6-3.2-2.4-7-2.4-11.2v-12.3H945.6z M868.1,82.7c0-4.2,0.8-8,2.3-11.4c1.5-3.4,3.6-6.3,6.2-8.6c2.7-2.4,5.7-4.2,9.1-5.4
		c3.4-1.2,7-1.8,10.7-1.8c3.8,0,7.3,0.6,10.8,1.8c3.4,1.2,6.4,3,9.1,5.4c2.6,2.4,4.7,5.2,6.2,8.6c1.5,3.4,2.3,7.2,2.3,11.4v6.4
		h-56.6V82.7z"/>
	<path class="st0" d="M450.7,100.2c-5.8-6.5-14.4-10.2-25.9-11.3l-8.8-0.8L458,42h-24.7l-38.9,43.7h-5l-1.7-0.2V3.3h-20.4v154.2
		h20.4v-56.4l41.7,3.7c4.2,0.3,6.8,1.4,7.9,3.3c1,1.9,1.6,4.4,1.6,7.5v41.8h20.4v-34.1l0,0C459.3,114.4,456.4,106.7,450.7,100.2z"/>
</g>
</svg>
