<?xml version="1.0" encoding="utf-8"?>
<!-- Generator: Adobe Illustrator 26.0.1, SVG Export Plug-In . SVG Version: 6.00 Build 0)  -->
<svg version="1.1" id="Layer_1" xmlns="http://www.w3.org/2000/svg" xmlns:xlink="http://www.w3.org/1999/xlink" x="0px" y="0px"
	 viewBox="0 0 1265.6 553.9" style="enable-background:new 0 0 1265.6 553.9;" xml:space="preserve">
<style type="text/css">
	.st0{fill:#FFFFFF;}
</style>
<g>
	<g>
		<g>
			<g>
				<path class="st0" d="M422,252.4c5.1-6.8,6.2-15,6.2-29.3v-98.1l-4.5-6.6v-0.4h20.2l77.3,114.2h0.8v-84.5
					c0-14.2-1.2-22.5-6.2-29.1v-0.6h23.7v0.6c-4.9,6.6-6.2,15-6.2,29.1V253h-14.4l-78.7-116.2h-1V223c0,14.4,1.4,22.5,6.2,29.3v0.6
					H422V252.4z"/>
				<path class="st0" d="M663.9,231.2V253h-94.4v-0.6c5.1-6.6,6-14.8,6-29.3v-75.2c0-14.4-1.2-22.7-6-29.3v-0.6h91.9v19h-0.8
					c-5.1-6.4-12.2-8.9-29.1-8.9h-42v51.5h33.2c15.2,0,21.6-2.1,26.4-7h0.8v23.9h-0.8c-4.9-4.9-11.3-6.8-26.4-6.8h-33.2v53h45.1
					c15.3,0,23.3-2.7,28.6-11.5H663.9z"/>
				<path class="st0" d="M688.7,146.9c-3.3-12.2-6.4-20.6-12.4-28.4v-0.6h26.4v0.6c-4.3,7.8-2.9,15.9,0.4,27.8l24.1,86.3h0.8
					l32.3-104.7l-3.3-9.9h16.3l32.8,113.8h0.8l24.5-85.3c3.5-12.4,4.9-20.6,1.2-28v-0.6h22.7v0.6c-6.4,7.8-9.3,15.7-12.8,28.2
					L811.3,253h-12.6l-31.9-110.5h-0.6L731.9,253h-13L688.7,146.9z"/>
			</g>
			<g>
				<path class="st0" d="M212.7,54.5c2-2.6,2.5-6,2.5-11.7v-30c0-5.7-0.5-9-2.5-11.7V0.8h18.6c12,0,18.5,5.2,18.5,13
					c0,6.6-5.1,11.3-12.7,12.6v0.3c9.6,1,15.4,6.2,15.4,13.3c0,8.5-7,14.8-19.7,14.8h-20.1V54.5z M230.6,24.6
					c8.1,0,13.4-3.4,13.4-10.4c0-5.9-4.7-9.5-13.2-9.5h-10v19.9H230.6z M220.7,28.6v22h10.7c9.5,0,15.2-3.9,15.2-11.1
					c0-7.5-6.3-10.9-15.9-10.9H220.7z"/>
				<path class="st0" d="M305.9,54.6v0.2h-7.3l-22.5-26.4h-5.9v14.4c0,6,0.5,9.1,2.4,11.7v0.2h-10.4v-0.2c1.9-2.6,2.5-5.7,2.5-11.7
					v-30c0-5.7-0.5-9.1-2.5-11.7V0.8h17.2c11.6,0,18.5,5.4,18.5,13.6c0,7.2-5.7,12.6-15.1,13.7L305.9,54.6z M270.2,24.4h8.2
					c8.9,0,13.6-3.9,13.6-9.9c0-6.2-4.7-9.7-13.6-9.7h-8.2V24.4z"/>
				<path class="st0" d="M349.3,46v8.7h-37.7v-0.2c2-2.6,2.4-5.9,2.4-11.7v-30c0-5.7-0.5-9.1-2.4-11.7V0.8h36.7v7.6H348
					c-2-2.6-4.9-3.6-11.6-3.6h-16.8v20.6h13.3c6.1,0,8.6-0.9,10.6-2.8h0.3v9.5h-0.3c-1.9-1.9-4.5-2.7-10.6-2.7h-13.3v21.2h18
					c6.1,0,9.3-1.1,11.4-4.6H349.3z"/>
				<path class="st0" d="M359,54.5c2-2.7,2.5-6,2.5-11.7V3.6l-1.8-2.6V0.8h8.1l30.9,45.6h0.3V12.7c0-5.7-0.5-9-2.5-11.6V0.8h9.5V1
					c-1.9,2.6-2.5,6-2.5,11.6v42.1h-5.7L366.3,8.3h-0.4v34.5c0,5.7,0.5,9,2.5,11.7v0.2H359V54.5z"/>
				<path class="st0" d="M420.4,12.9c0-6.1-0.5-9.2-2.5-11.9V0.8h18.5c17.5,0,29,10.7,29,26.9c0,16.3-11.5,27-29,27h-18.5v-0.2
					c2.2-2.6,2.5-6.1,2.5-11.9V12.9z M426,50.7h9.1c14.7,0,24.1-8.1,24.1-23c0-14.7-9.5-23-24.1-23H426V50.7z"/>
				<path class="st0" d="M512.6,42.5c2.3,5.5,3.6,9.2,6.1,12v0.2h-10.6v-0.2c1.3-2.7,0.5-6.6-1.5-11.7l-2-5H481l-2,5.1
					c-1.9,5-2.7,8.8-1.2,11.6v0.2h-9.4v-0.2c2.7-2.8,4.1-6.6,6.1-11.6L491,0.8h4.7L512.6,42.5z M482.5,33.7H503L492.8,8.2h-0.3
					L482.5,33.7z"/>
				<path class="st0" d="M525.6,54.5c2-2.7,2.5-6,2.5-11.7V3.6l-1.8-2.6V0.8h8.1l30.9,45.6h0.3V12.7c0-5.7-0.5-9-2.5-11.6V0.8h9.5V1
					c-1.9,2.6-2.5,6-2.5,11.6v42.1h-5.7L532.9,8.3h-0.4v34.5c0,5.7,0.5,9,2.5,11.7v0.2h-9.4V54.5z"/>
				<path class="st0" d="M604.5,54.5c2-2.6,2.5-5.8,2.5-11.6V12.7c0-5.7-0.5-9-2.5-11.7V0.8h33.8v7.6H638c-1.8-2.6-5.1-3.6-11.8-3.6
					h-13.7v21.3h11.6c6,0,8.9-0.9,10.6-2.8h0.3v9.5h-0.3c-1.6-1.9-4.6-2.6-10.6-2.6h-11.6v12.7c0,5.7,0.5,8.9,2.8,11.6v0.2h-10.8
					V54.5z"/>
				<path class="st0" d="M685,46v8.7h-37.7v-0.2c2-2.6,2.4-5.9,2.4-11.7v-30c0-5.7-0.5-9.1-2.4-11.7V0.8H684v7.6h-0.3
					c-2-2.6-4.9-3.6-11.6-3.6h-16.8v20.6h13.3c6.1,0,8.6-0.9,10.6-2.8h0.3v9.5h-0.3c-1.9-1.9-4.5-2.7-10.6-2.7h-13.3v21.2h18
					c6.1,0,9.3-1.1,11.4-4.6H685z"/>
				<path class="st0" d="M738.4,54.6v0.2h-7.3l-22.5-26.4h-5.9v14.4c0,6,0.5,9.1,2.4,11.7v0.2h-10.4v-0.2c1.9-2.6,2.5-5.7,2.5-11.7
					v-30c0-5.7-0.5-9.1-2.5-11.7V0.8H712c11.6,0,18.5,5.4,18.5,13.6c0,7.2-5.7,12.6-15.1,13.7L738.4,54.6z M702.7,24.4h8.2
					c8.9,0,13.6-3.9,13.6-9.9c0-6.2-4.7-9.7-13.6-9.7h-8.2V24.4z"/>
				<path class="st0" d="M744.2,54.5c2-2.7,2.5-6,2.5-11.7V3.6l-1.8-2.6V0.8h8.1l30.9,45.6h0.3V12.7c0-5.7-0.5-9-2.5-11.6V0.8h9.5V1
					c-1.9,2.6-2.5,6-2.5,11.6v42.1h-5.7L751.5,8.3h-0.4v34.5c0,5.7,0.5,9,2.5,11.7v0.2h-9.4V54.5z"/>
				<path class="st0" d="M841.7,42.5c2.3,5.5,3.6,9.2,6.1,12v0.2h-10.6v-0.2c1.3-2.7,0.5-6.6-1.5-11.7l-2-5h-23.7l-2,5.1
					c-1.9,5-2.7,8.8-1.2,11.6v0.2h-9.4v-0.2c2.7-2.8,4.1-6.6,6.1-11.6l16.5-42.1h4.7L841.7,42.5z M811.6,33.7h20.5L822,8.2h-0.3
					L811.6,33.7z"/>
				<path class="st0" d="M854.7,54.5c2-2.7,2.5-6,2.5-11.7V3.6l-1.8-2.6V0.8h8.1l30.9,45.6h0.3V12.7c0-5.7-0.5-9-2.5-11.6V0.8h9.5V1
					c-1.9,2.6-2.5,6-2.5,11.6v42.1h-5.7L862,8.3h-0.4v34.5c0,5.7,0.5,9,2.5,11.7v0.2h-9.4V54.5z"/>
				<path class="st0" d="M916.1,12.9c0-6.1-0.5-9.2-2.5-11.9V0.8h18.5c17.5,0,29,10.7,29,26.9c0,16.3-11.5,27-29,27h-18.5v-0.2
					c2.2-2.6,2.5-6.1,2.5-11.9V12.9z M921.7,50.7h9.1c14.7,0,24.1-8.1,24.1-23c0-14.7-9.5-23-24.1-23h-9.1V50.7z"/>
				<path class="st0" d="M1008.5,46v8.7h-37.7v-0.2c2-2.6,2.4-5.9,2.4-11.7v-30c0-5.7-0.5-9.1-2.4-11.7V0.8h36.7v7.6h-0.3
					c-2-2.6-4.9-3.6-11.6-3.6h-16.8v20.6H992c6.1,0,8.6-0.9,10.6-2.8h0.3v9.5h-0.3c-1.9-1.9-4.5-2.7-10.6-2.7h-13.3v21.2h18
					c6.1,0,9.3-1.1,11.4-4.6H1008.5z"/>
				<path class="st0" d="M1016,50.2v-7.8h0.3c4.2,6.3,9.9,8.9,15.5,8.9c6.3,0,12.1-3.6,12.1-9.9c0-4.3-2.5-6.7-8.1-9.2l-7.7-3.4
					c-7.4-3.3-10.8-8-10.8-13.9c0-8.2,7.1-14.8,17.3-14.8c5.4,0,10.4,1.7,13.4,3.7v7.5h-0.3c-3.3-5-8.2-7.1-13.1-7.1
					c-6.8,0-11.8,3.7-11.8,9.8c0,4.3,2.4,7.1,7.8,9.5l7.8,3.5c7.1,3.3,11,7.1,11,13.6c0,8.8-7.8,15.1-17.6,15.1
					C1026.3,55.5,1020.4,53.6,1016,50.2z"/>
			</g>
			<g>
				<path class="st0" d="M69,436.9L18.1,318.2h-0.8v88.8c0,14.2,1.4,22.5,6.2,29.3v0.6H0v-0.6c4.9-6.8,6-15.2,6-29.3v-75.2
					c0-14.2-0.8-22.7-6-29.3v-0.6h25.6L75.8,419h0.8l49.7-117.1h25.1v0.6c-5.1,6.6-6.2,15.2-6.2,29.3v75.2c0,14.4,1.2,22.5,6.2,29.3
					v0.6h-26.4v-0.6c5.1-6.8,6.2-15,6.2-29.3v-89h-0.8L80,436.9H69z"/>
				<path class="st0" d="M175.6,369.4c0-40,27.6-69.6,66.2-69.6c38.7,0,66.2,29.5,66.2,69.6c0,40-27.6,69.4-66.2,69.4
					C203.2,438.8,175.6,409.5,175.6,369.4z M292.8,369.4c0-34.8-21.2-59.1-50.9-59.1S191,334.7,191,369.4
					c0,34.8,21.2,58.7,50.9,58.7S292.8,404.2,292.8,369.4z"/>
				<path class="st0" d="M332.2,436.3c5.1-6.8,6.2-15,6.2-29.3v-98.1l-4.5-6.6v-0.4h20.2l77.3,114.2h0.8v-84.5
					c0-14.2-1.2-22.5-6.2-29.1v-0.6h23.7v0.6c-4.9,6.6-6.2,15-6.2,29.1v105.3h-14.4l-78.7-116.2h-1v86.3c0,14.4,1.4,22.5,6.2,29.3
					v0.6h-23.5V436.3z"/>
				<path class="st0" d="M484.2,382.5v-50.9c0-14.4-1.4-22.5-6.2-29.1v-0.6h26.2v0.6c-4.9,6.6-6.2,14.8-6.2,29.1v51.1
					c0,27.6,15,43.9,40,43.9c25.1,0,40.2-16.3,40.2-43.7v-51.3c0-14.4-1.4-22.3-6.2-29.1v-0.6h23.5v0.6c-4.9,6.8-6.2,14.8-6.2,29.3
					v50.7c0,34.2-18.8,56.3-52.5,56.3C503.4,438.8,484.2,416.8,484.2,382.5z"/>
				<path class="st0" d="M693.2,436.9l-50.9-118.7h-0.8v88.8c0,14.2,1.4,22.5,6.2,29.3v0.6h-23.5v-0.6c4.9-6.8,6-15.2,6-29.3v-75.2
					c0-14.2-0.8-22.7-6-29.3v-0.6h25.6L700,419h0.8l49.7-117.1h25.1v0.6c-5.1,6.6-6.2,15.2-6.2,29.3v75.2c0,14.4,1.2,22.5,6.2,29.3
					v0.6h-26.4v-0.6c5.1-6.8,6.2-15,6.2-29.3v-89h-0.8l-50.3,118.9H693.2z"/>
				<path class="st0" d="M900.5,415.1v21.8h-94.4v-0.6c5.1-6.6,6-14.8,6-29.3v-75.2c0-14.4-1.2-22.7-6-29.3v-0.6H898v19h-0.8
					c-5.1-6.4-12.2-8.9-29.1-8.9h-42v51.5h33.2c15.2,0,21.6-2.1,26.4-7h0.8v23.9h-0.8c-4.9-4.9-11.3-6.8-26.4-6.8h-33.2v53h45.1
					c15.3,0,23.3-2.7,28.6-11.5H900.5z"/>
				<path class="st0" d="M924.8,436.3c5.1-6.8,6.2-15,6.2-29.3v-98.1l-4.5-6.6v-0.4h20.2l77.3,114.2h0.8v-84.5
					c0-14.2-1.2-22.5-6.2-29.1v-0.6h23.7v0.6c-4.9,6.6-6.2,15-6.2,29.1v105.3h-14.4L943,320.7h-1v86.3c0,14.4,1.4,22.5,6.2,29.3v0.6
					h-23.5V436.3z"/>
				<path class="st0" d="M1101.2,436.3c5.6-6.8,7-15,7-29.3v-95h-16.3c-17.3,0-25.3,3.1-30.3,9.9h-0.8v-20h108.8v20h-0.8
					c-4.9-6.8-12.8-9.9-30.1-9.9h-16.5v95c0,14.4,1.6,22.5,7,29.3v0.6h-28V436.3z"/>
				<path class="st0" d="M1181.8,425.6V406h0.8c10.5,15.7,24.7,22.3,38.9,22.3c15.7,0,30.3-8.9,30.3-24.9c0-10.9-6.2-16.7-20.2-23.1
					l-19.2-8.5c-18.5-8.4-27-20-27-34.8c0-20.4,17.7-37.1,43.3-37.1c13.4,0,26,4.3,33.6,9.3v18.8h-0.8
					c-8.2-12.6-20.4-17.9-32.8-17.9c-16.9,0-29.5,9.3-29.5,24.5c0,10.7,6,17.7,19.4,23.7l19.4,8.7c17.9,8.2,27.6,17.7,27.6,34
					c0,22.1-19.4,37.7-44.1,37.7C1207.5,438.8,1192.9,434.1,1181.8,425.6z"/>
			</g>
			<g>
				<path class="st0" d="M457.1,526.2c0-17.1,13-27.8,27.7-27.8c6.4,0,11.3,1.5,15.7,4v7.8h-0.3c-3.5-5-9.1-7.5-15.1-7.5
					c-12,0-21.8,9.2-21.8,23.1c0,14.7,9.8,23.2,22.5,23.2c6.1,0,11.3-2,16.5-6.1l0.8,3.3c-4.9,5-11,7.8-18.5,7.8
					C469.6,553.9,457.1,543.4,457.1,526.2z"/>
				<path class="st0" d="M559.6,499.4c-1.9,2.6-2.5,5.8-2.5,11.6v30.1c0,5.8,0.5,9,2.5,11.7v0.2H549v-0.2c1.9-2.7,2.5-6,2.5-11.7
					v-13.5h-32.1v13.5c0,5.8,0.5,9,2.5,11.7v0.2h-10.5v-0.2c1.9-2.7,2.5-6,2.5-11.7v-30.1c0-5.7-0.5-9-2.5-11.6v-0.2h10.5v0.2
					c-1.9,2.6-2.5,5.8-2.5,11.6v12.5h32.1v-12.5c0-5.7-0.5-9-2.5-11.6v-0.2h10.6V499.4z"/>
				<path class="st0" d="M571.7,552.9c1.9-2.7,2.5-6,2.5-11.7v-30c0-5.7-0.5-9.1-2.5-11.7v-0.2h10.5v0.2c-1.9,2.6-2.4,6-2.4,11.7v30
					c0,5.7,0.5,9,2.4,11.7v0.2h-10.5V552.9z"/>
				<path class="st0" d="M591.9,526.2c0-17.1,13-27.8,27.7-27.8c6.4,0,11.3,1.5,15.7,4v7.8h-0.3c-3.5-5-9.1-7.5-15.1-7.5
					c-12,0-21.8,9.2-21.8,23.1c0,14.7,9.8,23.2,22.5,23.2c6.1,0,11.3-2,16.5-6.1l0.8,3.3c-4.9,5-11,7.8-18.5,7.8
					C604.3,553.9,591.9,543.4,591.9,526.2z"/>
				<path class="st0" d="M684.6,541c2.3,5.5,3.6,9.2,6.1,12v0.2h-10.6v-0.2c1.3-2.7,0.5-6.6-1.5-11.7l-2-5H653l-2,5.1
					c-1.9,5-2.7,8.8-1.2,11.6v0.2h-9.4v-0.2c2.7-2.8,4.1-6.6,6.1-11.6l16.5-42.1h4.7L684.6,541z M654.6,532.1h20.5l-10.2-25.5h-0.3
					L654.6,532.1z"/>
				<path class="st0" d="M730.4,525h11.3v0.2c-1.8,2.9-2.3,5.4-2.3,11v12.6c-4.8,3.1-10.6,5-17.5,5c-16.7,0-28-11.3-28-27.3
					c0-16.3,12.3-28.2,29.7-28.2c7.1,0,12.7,1.5,17.2,4v7.7h-0.3c-3.6-5-9.5-7.5-16.5-7.5c-14.6,0-23.8,10-23.8,23.8
					c0,13.9,9,23.4,22.7,23.4c3.9,0,7.5-0.7,11-2.3v-11.3c0-5.6-0.7-8.2-3.3-11V525z"/>
				<path class="st0" d="M749.9,526.2c0-16,11-27.8,26.5-27.8c15.4,0,26.5,11.8,26.5,27.8c0,16-11,27.7-26.5,27.7
					C760.9,553.9,749.9,542.2,749.9,526.2z M796.7,526.2c0-13.9-8.5-23.6-20.3-23.6s-20.3,9.7-20.3,23.6c0,13.9,8.5,23.4,20.3,23.4
					S796.7,540.1,796.7,526.2z"/>
			</g>
		</g>
	</g>
</g>
</svg>
