<?xml version="1.0" encoding="utf-8"?>
<!-- Generator: Adobe Illustrator 26.0.1, SVG Export Plug-In . SVG Version: 6.00 Build 0)  -->
<svg version="1.1" xmlns="http://www.w3.org/2000/svg" xmlns:xlink="http://www.w3.org/1999/xlink" x="0px" y="0px"
	 viewBox="0 0 726.8 34.5" style="enable-background:new 0 0 726.8 34.5;" xml:space="preserve">
<style type="text/css">
	.st0{fill:#A7A7A7;}
	.st1{opacity:0.4;fill:#1E1E1E;}
	.st2{fill:#FFFFFF;}
	.st3{fill:none;stroke:#FFFFFF;stroke-miterlimit:10;}
	.st4{fill:#1E1E1E;}
</style>
<g id="Layer_2">
	<g>
		<defs>
			<rect id="SVGID_1_" x="952.4" y="-787.8" width="1366" height="757.1"/>
		</defs>
		<clipPath id="SVGID_00000062883132311780629370000005892118997080927418_">
			<use xlink:href="#SVGID_1_"  style="overflow:visible;"/>
		</clipPath>
		<g style="clip-path:url(#SVGID_00000062883132311780629370000005892118997080927418_);">
			
				<image style="overflow:visible;" width="3024" height="4032" xlink:href="_Resources/image-1.jpg"  transform="matrix(0.6881 0 0 0.6881 559.9481 -1902.4183)">
			</image>
		</g>
	</g>
	<g>
		<defs>
			<rect id="SVGID_00000165202068252458630300000008094735301772866212_" x="952.4" y="184.2" width="1366" height="757.1"/>
		</defs>
		<clipPath id="SVGID_00000176017387624473502390000009831889529475317159_">
			<use xlink:href="#SVGID_00000165202068252458630300000008094735301772866212_"  style="overflow:visible;"/>
		</clipPath>
		
			<g transform="matrix(1 0 0 1 0 -6.103516e-05)" style="clip-path:url(#SVGID_00000176017387624473502390000009831889529475317159_);">
			
				<image style="overflow:visible;" width="3024" height="4032" xlink:href="_Resources/image-1.jpg"  transform="matrix(0.6881 0 0 0.6881 559.9481 -930.4183)">
			</image>
		</g>
	</g>
</g>
<g id="Layer_1">
	<g>
		<path class="st2" d="M0,17.3C0,6.7,8.1,0,17.2,0c4,0,7,0.9,9.7,2.5v4.8h-0.2c-2.2-3.1-5.6-4.7-9.4-4.7C9.9,2.6,3.8,8.3,3.8,17
			c0,9.1,6.1,14.4,14,14.4c3.8,0,7-1.3,10.3-3.8l0.5,2c-3,3.1-6.9,4.8-11.5,4.8C7.8,34.5,0,28,0,17.3z"/>
		<path class="st2" d="M31.9,17.3C31.9,7.3,38.8,0,48.4,0s16.5,7.3,16.5,17.3S58,34.5,48.4,34.5S31.9,27.2,31.9,17.3z M61.1,17.3
			c0-8.6-5.3-14.7-12.6-14.7s-12.6,6-12.6,14.7c0,8.6,5.3,14.6,12.6,14.6S61.1,25.9,61.1,17.3z"/>
		<path class="st2" d="M88,34L75.4,4.5h-0.2v22.1c0,3.5,0.3,5.6,1.5,7.3V34h-5.8v-0.1c1.2-1.7,1.5-3.8,1.5-7.3V7.9
			c0-3.5-0.2-5.6-1.5-7.3V0.5h6.4l12.5,29.1h0.2l12.4-29.1h6.2v0.1c-1.3,1.6-1.5,3.8-1.5,7.3v18.7c0,3.6,0.3,5.6,1.5,7.3V34h-6.6
			v-0.1c1.3-1.7,1.5-3.7,1.5-7.3V4.5h-0.2L90.8,34H88z"/>
		<path class="st2" d="M133.2,34L120.6,4.5h-0.2v22.1c0,3.5,0.3,5.6,1.5,7.3V34h-5.8v-0.1c1.2-1.7,1.5-3.8,1.5-7.3V7.9
			c0-3.5-0.2-5.6-1.5-7.3V0.5h6.4l12.5,29.1h0.2l12.4-29.1h6.2v0.1c-1.3,1.6-1.5,3.8-1.5,7.3v18.7c0,3.6,0.3,5.6,1.5,7.3V34h-6.6
			v-0.1c1.3-1.7,1.5-3.7,1.5-7.3V4.5h-0.2L136,34H133.2z"/>
		<path class="st2" d="M162.3,20.5V7.9c0-3.6-0.3-5.6-1.5-7.2V0.5h6.5v0.1c-1.2,1.6-1.5,3.7-1.5,7.2v12.7c0,6.9,3.7,10.9,9.9,10.9
			s10-4.1,10-10.9V7.9c0-3.6-0.3-5.5-1.5-7.2V0.5h5.8v0.1c-1.2,1.7-1.5,3.7-1.5,7.3v12.6c0,8.5-4.7,14-13,14
			C167.1,34.5,162.3,29.1,162.3,20.5z"/>
		<path class="st2" d="M197,33.9c1.3-1.7,1.5-3.7,1.5-7.3V2.2l-1.1-1.6V0.5h5l19.2,28.4h0.2v-21c0-3.5-0.3-5.6-1.5-7.2V0.5h5.9v0.1
			c-1.2,1.6-1.5,3.7-1.5,7.2V34h-3.6L201.6,5.2h-0.2v21.4c0,3.6,0.3,5.6,1.5,7.3V34H197V33.9z"/>
		<path class="st2" d="M233.7,33.9c1.2-1.7,1.5-3.7,1.5-7.3V7.9c0-3.6-0.3-5.6-1.5-7.3V0.5h6.5v0.1c-1.2,1.6-1.5,3.7-1.5,7.3v18.7
			c0,3.6,0.3,5.6,1.5,7.3V34h-6.5V33.9z"/>
		<path class="st2" d="M255,33.9c1.4-1.7,1.7-3.7,1.7-7.3V3h-4.1c-4.3,0-6.3,0.8-7.5,2.5h-0.2v-5h27v5h-0.2
			c-1.2-1.7-3.2-2.5-7.5-2.5h-4.1v23.6c0,3.6,0.4,5.6,1.7,7.3V34h-7V33.9z"/>
		<path class="st2" d="M297.8,0.5h6.1v0.1c-2.2,1.9-3.7,4.2-5.6,7.1l-8,12.4v7.1c0,3.6,0.3,5.1,1.5,6.6V34h-6.5v-0.1
			c1.2-1.5,1.5-3,1.5-6.6v-7L279,7.6c-1.7-2.8-3.3-5.1-5.2-7V0.5h7v0.1c-0.5,2,0.6,4.4,2.3,7.1l5.9,9.5h0.1l6.1-9.5
			c1.9-2.9,2.9-5.2,2.6-7.1V0.5z"/>
		<path class="st2" d="M323.8,19.9v6.8c0,3.6,0.4,5.6,1.7,7.2V34h-6.7v-0.1c1.2-1.6,1.5-3.6,1.5-7.2V7.9c0-3.5-0.3-5.6-1.5-7.2V0.5
			h10c7.5,0,12.5,3.5,12.5,9.7s-4.9,9.7-12.5,9.7H323.8z M323.8,2.9v14.5h4.4c5.9,0,9.4-2.4,9.4-7.3c0-5-3.5-7.2-9.4-7.2H323.8z"/>
		<path class="st2" d="M373.5,33.9L373.5,33.9L369,34l-14-16.4h-3.7v9c0,3.7,0.3,5.6,1.5,7.3V34h-6.5v-0.1c1.2-1.6,1.5-3.6,1.5-7.3
			V7.9c0-3.5-0.3-5.6-1.5-7.3V0.5h10.7c7.2,0,11.5,3.4,11.5,8.4c0,4.5-3.5,7.8-9.4,8.5L373.5,33.9z M351.3,15.2h5.1
			c5.6,0,8.4-2.4,8.4-6.2c0-3.9-2.9-6-8.4-6h-5.1V15.2z"/>
		<path class="st2" d="M375,17.3C375,7.3,381.8,0,391.4,0s16.5,7.3,16.5,17.3s-6.9,17.2-16.5,17.2S375,27.2,375,17.3z M404.1,17.3
			c0-8.6-5.3-14.7-12.6-14.7s-12.6,6-12.6,14.7c0,8.6,5.3,14.6,12.6,14.6S404.1,25.9,404.1,17.3z"/>
		<path class="st2" d="M431.1,34L418.4,4.5h-0.2v22.1c0,3.5,0.3,5.6,1.5,7.3V34h-5.8v-0.1c1.2-1.7,1.5-3.8,1.5-7.3V7.9
			c0-3.5-0.2-5.6-1.5-7.3V0.5h6.4l12.5,29.1h0.2l12.4-29.1h6.2v0.1c-1.3,1.6-1.5,3.8-1.5,7.3v18.7c0,3.6,0.3,5.6,1.5,7.3V34H445
			v-0.1c1.3-1.7,1.5-3.7,1.5-7.3V4.5h-0.2L433.8,34H431.1z"/>
		<path class="st2" d="M464.1,19.9v6.8c0,3.6,0.4,5.6,1.7,7.2V34h-6.7v-0.1c1.2-1.6,1.5-3.6,1.5-7.2V7.9c0-3.5-0.3-5.6-1.5-7.2V0.5
			h10c7.5,0,12.5,3.5,12.5,9.7s-4.9,9.7-12.5,9.7H464.1z M464.1,2.9v14.5h4.4c5.9,0,9.4-2.4,9.4-7.3c0-5-3.5-7.2-9.4-7.2H464.1z"/>
		<path class="st2" d="M493.8,33.9c1.4-1.7,1.7-3.7,1.7-7.3V3h-4.1c-4.3,0-6.3,0.8-7.5,2.5h-0.2v-5h27v5h-0.2
			c-1.2-1.7-3.2-2.5-7.5-2.5H499v23.6c0,3.6,0.4,5.6,1.7,7.3V34h-7V33.9z"/>
		<path class="st2" d="M549.3,26.4c1.4,3.4,2.3,5.7,3.8,7.4V34h-6.6v-0.1c0.8-1.7,0.3-4.1-0.9-7.3l-1.3-3.1h-14.7l-1.3,3.2
			c-1.2,3.1-1.7,5.5-0.8,7.2V34h-5.8v-0.1c1.7-1.7,2.6-4.1,3.8-7.2l10.3-26.2h2.9L549.3,26.4z M530.7,20.9h12.7l-6.3-15.9h-0.2
			L530.7,20.9z"/>
		<path class="st2" d="M584.6,33.9L584.6,33.9l-4.5,0.1l-14-16.4h-3.7v9c0,3.7,0.3,5.6,1.5,7.3V34h-6.5v-0.1
			c1.2-1.6,1.5-3.6,1.5-7.3V7.9c0-3.5-0.3-5.6-1.5-7.3V0.5h10.7c7.2,0,11.5,3.4,11.5,8.4c0,4.5-3.5,7.8-9.4,8.5L584.6,33.9z
			 M562.4,15.2h5.1c5.6,0,8.4-2.4,8.4-6.2c0-3.9-2.9-6-8.4-6h-5.1V15.2z"/>
		<path class="st2" d="M586,17.3C586,6.7,594.1,0,603.3,0c4,0,7,0.9,9.7,2.5v4.8h-0.2c-2.2-3.1-5.6-4.7-9.4-4.7
			c-7.5,0-13.6,5.7-13.6,14.4c0,9.1,6.1,14.4,14,14.4c3.8,0,7-1.3,10.3-3.8l0.5,2c-3,3.1-6.9,4.8-11.5,4.8
			C593.8,34.5,586,28,586,17.3z"/>
		<path class="st2" d="M649.7,0.6c-1.2,1.6-1.5,3.6-1.5,7.2v18.7c0,3.6,0.3,5.6,1.5,7.3V34h-6.6v-0.1c1.2-1.7,1.5-3.7,1.5-7.3v-8.4
			h-20v8.4c0,3.6,0.3,5.6,1.5,7.3V34h-6.5v-0.1c1.2-1.7,1.5-3.7,1.5-7.3V7.9c0-3.6-0.3-5.6-1.5-7.2V0.5h6.5v0.1
			c-1.2,1.6-1.5,3.6-1.5,7.2v7.8h20V7.9c0-3.6-0.3-5.6-1.5-7.2V0.5h6.6V0.6z"/>
		<path class="st2" d="M657.3,33.9c1.2-1.7,1.5-3.7,1.5-7.3V7.9c0-3.6-0.3-5.6-1.5-7.3V0.5h6.5v0.1c-1.2,1.6-1.5,3.7-1.5,7.3v18.7
			c0,3.6,0.3,5.6,1.5,7.3V34h-6.5V33.9z"/>
		<path class="st2" d="M684.8,34h-3l-9.7-26c-1.3-3.2-2.2-5.6-3.8-7.4V0.5h6.6v0.1c-1,1.8-0.3,4.2,0.8,7.4l7.9,21.2h0.2L692.3,8
			c1.4-3.4,1.8-5.6,1.1-7.4V0.5h5.7v0.1c-1.7,1.8-2.7,4.1-4,7.3L684.8,34z"/>
		<path class="st2" d="M726.8,28.6V34h-23.5v-0.1c1.3-1.6,1.5-3.7,1.5-7.3V7.9c0-3.6-0.3-5.6-1.5-7.3V0.5h22.8v4.7h-0.2
			c-1.3-1.6-3-2.2-7.2-2.2h-10.4v12.8h8.3c3.8,0,5.4-0.5,6.6-1.7h0.2V20h-0.2c-1.2-1.2-2.8-1.7-6.6-1.7h-8.3v13.2h11.2
			c3.8,0,5.8-0.7,7.1-2.8H726.8z"/>
	</g>
</g>
</svg>
